<?xml version="1.0" encoding="utf-8"?>
<!-- Generator: Adobe Illustrator 20.1.0, SVG Export Plug-In . SVG Version: 6.00 Build 0)  -->
<svg version="1.1" xmlns="http://www.w3.org/2000/svg" xmlns:xlink="http://www.w3.org/1999/xlink" x="0px" y="0px"
	 viewBox="0 0 1190.6 841.9" style="enable-background:new 0 0 1190.6 841.9;" xml:space="preserve">
<style type="text/css">
	.st0{fill:none;stroke:#3F3F3F;stroke-width:5;stroke-miterlimit:10;}
	.st1{fill:none;stroke:#6BC1B4;stroke-width:4.5;stroke-miterlimit:10;}
</style>
<g id="Naam">
	<path class="st0" d="M502.4,509.4v48V509.4z"/>
	<polyline class="st0" points="339.6,509.4 339.6,557.4 339.6,533.4 387.6,533.4 387.6,557.4 387.6,509.4 	"/>
	<polyline class="st0" points="765.2,557.4 765.2,509.4 765.2,533.4 813.2,533.4 813.2,509.4 813.2,557.4 	"/>
	<line class="st0" x1="611.9" y1="509.4" x2="611.9" y2="557.4"/>
	<line class="st0" x1="651.8" y1="533.4" x2="609.4" y2="533.4"/>
	<line class="st0" x1="651.8" y1="557.4" x2="609.4" y2="557.4"/>
	<line class="st0" x1="651.8" y1="509.4" x2="609.4" y2="509.4"/>
	<polyline class="st0" points="731,509.4 688.5,509.4 688.5,557.4 731,557.4 	"/>
	<polyline class="st0" points="536.5,509.4 577.8,509.4 557.2,509.4 557.2,557.4 	"/>
	<polyline class="st0" points="468.3,557.4 445,509.4 421.8,557.4 	"/>
</g>
<g id="Beeldmerk">
	<g>
		<circle class="st1" cx="561.8" cy="263.5" r="9.3"/>
		<circle class="st1" cx="703.3" cy="263.5" r="9.3"/>
		<circle class="st1" cx="405.9" cy="321.8" r="9.3"/>
		<path class="st1" d="M742.1,263.6h-29.5c0,0,0-0.1,0-0.1c0-5.1-4.2-9.3-9.3-9.3c-5.1,0-9.3,4.2-9.3,9.3c0,0,0,0.1,0,0.1h-77.2
			h-34.6h-4.7h-6.3c0,0,0-0.1,0-0.1c0-5.1-4.2-9.3-9.3-9.3s-9.3,4.2-9.3,9.3c0,0,0,0.1,0,0.1h-11.8c-8.7,0-15.7,7-15.7,15.7v25
			c0,8.7-7,15.7-15.7,15.7h-15c-8.7,0-15.7-7-15.7-15.7v-25c0-8.7-7-15.7-15.7-15.7h-41.5c-8.7,0-15.7,7-15.7,15.7v33.1
			c-5.1,0-9.3,4.2-9.3,9.3s4.2,9.3,9.3,9.3v102.4c0,8.7,7,15.7,15.7,15.7H463c8.7,0,15.7-7,15.7-15.7v-25c0-8.7,7-15.7,15.7-15.7h15
			c8.7,0,15.7,7,15.7,15.7v25c0,8.7,7,15.7,15.7,15.7h11.8c0,0,0,0.1,0,0.1c0,5.1,4.2,9.3,9.3,9.3s9.3-4.2,9.3-9.3c0,0,0-0.1,0-0.1
			h11c8.7,0,15.7-7,15.7-15.7l0.4-86.4l0,0c1.1-10.9,24.4-9.8,29-4.5c2.5,3,2.6,6.8,2.6,11v9c-5.1,0-9.3,4.2-9.3,9.3
			s4.1,9.3,9.3,9.3v51c0,9.4,7.6,16.9,16.9,16.9h39.1c9.4,0,16.9-7.6,16.9-16.9v-78.6c0-9.4,7.6-16.9,16.9-16.9h22.4
			c9.4,0,16.9-7.6,16.9-16.9v-39.1C759.1,271.2,751.5,263.6,742.1,263.6z"/>
		<circle class="st1" cx="629.8" cy="372" r="9.3"/>
		<circle class="st1" cx="561.9" cy="449.2" r="9.3"/>
		<circle class="st1" cx="499.4" cy="372" r="9.3"/>
		<circle class="st1" cx="426.4" cy="399.5" r="9.3"/>
		<circle class="st1" cx="631.8" cy="284" r="9.3"/>
		<circle class="st1" cx="683.2" cy="401.1" r="9.3"/>
		<path class="st1" d="M725,284h-83.8c0-5.1-4.2-9.3-9.3-9.3s-9.3,4.2-9.3,9.3h-58h-3.5h-2.4c-7,0-12.7,5.7-12.7,12.7v31.2
			c0,7-5.7,12.7-12.7,12.7h-62.7c-7,0-12.7-5.7-12.7-12.7v-31.2c0-7-5.7-12.7-12.7-12.7h-5.9c-7,0-12.7,5.7-12.7,12.7v93.5
			c-5.1,0-9.3,4.2-9.3,9.3s4.2,9.3,9.3,9.3v7.2c0,7,5.7,12.7,12.7,12.7h5.9c7,0,12.7-5.7,12.7-12.7v-31.2c0-7,5.7-12.7,12.7-12.7
			H490c0.1,5.1,4.2,9.2,9.3,9.2s9.2-4.1,9.3-9.2h24.5c7,0,12.7,5.7,12.7,12.7V416c0,7,5.7,12.7,12.7,12.7h5.9
			c7,0,12.7-5.7,12.7-12.7v-85.3c0-7.1,5.7-12.8,12.8-12.8h45.6c7.6,0,13.7,6.1,13.7,13.7V415c0,7.6,6.1,13.7,13.7,13.7h6.4
			c7.6,0,13.7-6.1,13.7-13.7v-4.7c0,0,0,0,0,0c5.1,0,9.3-4.2,9.3-9.3s-4.2-9.3-9.3-9.3c0,0,0,0,0,0v-60.1c0-7.6,6.1-13.7,13.7-13.7
			h28c7.6,0,13.7-6.1,13.7-13.7v-6.4C738.7,290.1,732.5,284,725,284z"/>
	</g>
</g>
</svg>
